<?xml version="1.0" encoding="UTF-8"?>
<svg width="1036px" height="53px" viewBox="0 0 1036 53" version="1.1" xmlns="http://www.w3.org/2000/svg" xmlns:xlink="http://www.w3.org/1999/xlink">
    <!-- Generator: Sketch 60.1 (88133) - https://sketch.com -->
    <title>gotas desktop</title>
    <desc>Created with Sketch.</desc>
    <g id="Symbols" stroke="none" stroke-width="1" fill="none" fill-rule="evenodd">
        <g id="descárgate-la-app" transform="translate(-252.000000, -154.000000)" fill="#FFBC0D">
            <g id="bg">
                <g>
                    <g id="gotas-desktop" transform="translate(252.320157, 154.000000)">
                        <path d="M783,0 L791.89764,0 C819.24417,1.10859927 833.102751,29.3890911 862.021958,24.9472203 C872.457213,23.3453567 881.141991,17.2742187 892.040535,17.1845342 C918.124918,16.9752706 930.929205,46.8850296 955.263109,52.0692882 C962.560526,53.6238184 970.221061,53.4195372 976.972548,50.0065462 C982.895126,47.0145738 987.495453,42.0595088 991.482237,36.8777414 C998.371459,27.9192629 1004.5069,18.2084315 1012.74341,10.3660259 C1017.22354,6.10352405 1022.63024,2.14495274 1028.77068,0.84452843 C1031.15474,0.338807866 1033.56384,0.124561715 1035.97795,0 L1046,0" id="Fill-2"></path>
                        <path d="M0,0 C95.4453333,0 125.033412,46.1153684 167.983686,46.1153684 C219.52502,46.1153684 251.974275,0 325.468863,0 C379.156078,0 395.798588,25.9402105 419.957961,25.9402105 C448.951216,25.9402105 467.20502,0 508.544,0" id="Fill-2"></path>
                    </g>
                </g>
            </g>
        </g>
    </g>
</svg>